<svg xmlns="http://www.w3.org/2000/svg" viewBox="0 0 128 128">
  <text x="64" y="62" font-family="Arial, Helvetica, sans-serif" font-weight="800" font-size="40" fill="#252F3E" text-anchor="middle" letter-spacing="1">aws</text>
  <path fill="#F90" d="M99 84C87.7 92.2 71.4 96.6 57.4 96.6c-19.6 0-37.3-7.3-50.7-19.3-1.1-1-.1-2.4 1.2-1.6 14.4 8.4 32.3 13.4 50.7 13.4 12.4 0 26.1-2.6 38.7-7.9 1.9-.8 3.5 1.2 1.7 2.8z"/>
  <path fill="#F90" d="M103.7 78.7c-1.5-1.9-9.6-.9-13.2-.4-1.1.1-1.3-.8-.3-1.5 6.4-4.5 17-3.2 18.2-1.7 1.2 1.6-.3 12.2-6.3 17.2-.9.8-1.8.4-1.4-.6 1.4-3.7 4.7-11.8 3-13z"/>
</svg>
