<svg xmlns="http://www.w3.org/2000/svg" viewBox="0 0 128 128">
  <g fill="#2496ED">
    <rect x="17" y="47" width="13" height="13" rx="1.5"/>
    <rect x="33" y="47" width="13" height="13" rx="1.5"/>
    <rect x="49" y="47" width="13" height="13" rx="1.5"/>
    <rect x="65" y="47" width="13" height="13" rx="1.5"/>
    <rect x="33" y="31" width="13" height="13" rx="1.5"/>
    <rect x="49" y="31" width="13" height="13" rx="1.5"/>
    <rect x="65" y="31" width="13" height="13" rx="1.5"/>
    <rect x="65" y="15" width="13" height="13" rx="1.5"/>
  </g>
  <path fill="#2496ED" d="M123 53c-3-2-9.8-2.7-15-1.7-.7-4.9-3.4-9.2-8.1-12.8l-2.6-1.7-1.7 2.6c-2.2 3.4-2.8 9-.4 12.8 1 1.6 2.6 2.8 4.1 3.6-2 1-5.9 2.5-11.1 2.5H5.6c-2 12 1.4 27.4 10.2 36.2C24.9 103.6 35.8 107 48.3 107c27.1 0 47.1-12.5 56.5-35.2 3.7.1 11.8.1 16-7.9.3-.5 1-2 1.3-2.6z"/>
</svg>
