<svg xmlns="http://www.w3.org/2000/svg" viewBox="0 0 128 128">
  <path fill="#a41e11" d="M122 95.1c-6.8 3.5-41.9 18-49.4 21.9-7.5 3.9-11.6 3.9-17.5 1.1-5.9-2.8-43.3-17.9-50-21.1-1.7-.8-2.4-1.3-2.4-2.2v-9.7s48.7-10.6 56.6-13.4c7.9-2.8 10.6-2.9 17.3-.5 6.7 2.4 46.7 9.7 53.3 12.1v9.6c0 .9-.6 1.4-2.2 2z"/>
  <path fill="#d82c20" d="M122 85.4c-6.8 3.5-41.9 18-49.4 21.9-7.5 3.9-11.6 3.9-17.5 1.1-5.9-2.8-43.3-17.9-50-21.1-3.3-1.6-3.4-2.7-.2-4l51.8-20.3c7.9-2.8 10.6-2.9 17.3-.5 6.7 2.4 41.7 16.2 48.3 18.6 6.7 2.4 6.7 4.3-1.3 5.3z"/>
  <path fill="#a41e11" d="M122 79.1c-6.8 3.5-41.9 18-49.4 21.9-7.5 3.9-11.6 3.9-17.5 1.1-5.9-2.8-43.3-17.9-50-21.1-1.7-.8-2.4-1.3-2.4-2.2v-9.7s48.7-10.6 56.6-13.4c7.9-2.8 10.6-2.9 17.3-.5 6.7 2.4 46.7 9.7 53.3 12.1v9.6c0 .9-.6 1.4-2.2 2z"/>
  <path fill="#d82c20" d="M122 69.4c-6.8 3.5-41.9 18-49.4 21.9-7.5 3.9-11.6 3.9-17.5 1.1-5.9-2.8-43.3-17.9-50-21.1-3.3-1.6-3.4-2.7-.2-4l51.8-20.3c7.9-2.8 10.6-2.9 17.3-.5 6.7 2.4 41.7 16.2 48.3 18.6 6.7 2.4 6.7 4.3-1.3 5.3z"/>
  <path fill="#a41e11" d="M122 62.5c-6.8 3.5-41.9 18-49.4 21.9-7.5 3.9-11.6 3.9-17.5 1.1-5.9-2.8-43.3-17.9-50-21.1-1.7-.8-2.4-1.3-2.4-2.2v-9.7s48.7-10.6 56.6-13.4c7.9-2.8 10.6-2.9 17.3-.5 6.7 2.4 46.7 9.7 53.3 12.1v9.6c0 .9-.6 1.4-2.2 2z"/>
  <path fill="#d82c20" d="M122 52.8c-6.8 3.5-41.9 18-49.4 21.9-7.5 3.9-11.6 3.9-17.5 1.1-5.9-2.8-43.3-17.9-50-21.1-3.3-1.6-3.4-2.7-.2-4l51.8-20.3c7.9-2.8 10.6-2.9 17.3-.5 6.7 2.4 41.7 16.2 48.3 18.6 6.7 2.4 6.7 4.3-1.3 5.3z"/>
  <path fill="#fff" d="M79.6 38.5 68.7 39.6l-2.4 5.9-3.9-6.6L48.9 37.8l9.4-3.4-2.8-5.3 8.8 3.5 8.3-2.7-2.3 5.5 8.3 3.1zM62.6 62.8 42.2 54.3l29.2-4.5z"/>
  <ellipse fill="#fff" cx="85.5" cy="30.6" rx="11.9" ry="4.6"/>
</svg>
