<svg xmlns="http://www.w3.org/2000/svg" viewBox="0 0 128 128">
  <circle cx="64" cy="64" r="60" fill="#6DB33F"/>
  <path fill="#fff" d="M97 25a48.5 48.5 0 0 1-5.6 9.9A52 52 0 1 0 28 100l2 1.7A52 52 0 0 0 113.6 64c1.3-11-2-25-16.6-39zM37 91a4.4 4.4 0 1 1 .3-6.2A4.4 4.4 0 0 1 37 91zm65.5-14.5c-12.1 16.1-38 10.7-54.5 11.5 0 0-3 .2-5.9.6 0 0 1.1-.5 2.5-.9 11.7-4.1 17.2-4.9 24.3-8.5 13.4-6.8 26.6-21.8 29.4-37.2-5.1 14.9-20.6 27.7-34.7 32.9-9.6 3.6-27.1 7-27.1 7l-.7-.4C25.5 74.6 25 59.3 35.4 51.3c4.6-3.5 10.6-2.5 17.4-4.4 7.1-2 15.5-8 17.2-15.3-3.2 10.7-18.5 11.3-24.6 14.4-9.7 5-9.8 14.9-9.8 14.9l-.3.6C30.4 50.4 27.2 37.3 33.7 27.6 40.6 17 54.5 12 66.8 14.5c-9.9-.4-19.6 3.5-26.3 9.3 9-9.2 21.9-13.2 33.9-11.9 15.5 1.7 26.8 11.6 29.2 25.9 1.4 21.9-6 36.8-6 36.8z"/>
</svg>
