<svg xmlns="http://www.w3.org/2000/svg" viewBox="0 0 128 128">
  <defs>
    <linearGradient id="vit1" x1="6" y1="3" x2="116" y2="100" gradientUnits="userSpaceOnUse">
      <stop stop-color="#41d1ff"/><stop offset="1" stop-color="#bd34fe"/>
    </linearGradient>
    <linearGradient id="vit2" x1="44" y1="20" x2="71" y2="113" gradientUnits="userSpaceOnUse">
      <stop stop-color="#ffea83"/><stop offset=".08" stop-color="#ffdd35"/><stop offset="1" stop-color="#ffa800"/>
    </linearGradient>
  </defs>
  <path fill="url(#vit1)" d="M124.8 23.7 67.6 126c-1.2 2.1-4.2 2.1-5.4 0L4 23.7c-1.3-2.3.7-5.1 3.3-4.6l57.2 10.2c.4.1.8.1 1.1 0l56-10.2c2.6-.5 4.6 2.3 3.2 4.6z"/>
  <path fill="url(#vit2)" d="M92.3 1 49.9 9.3c-.7.1-1.2.7-1.3 1.4l-2.6 44.1c-.1 1 .8 1.8 1.8 1.6l11.8-2.7c1.1-.3 2 .7 1.8 1.8l-3.5 17.2c-.2 1.1.8 2 1.9 1.7l7.3-2.2c1.1-.3 2.1.6 1.9 1.7l-5.6 27.1c-.3 1.5 1.7 2.4 2.6 1.1l.6-.9 34.7-69.3c.6-1.1-.4-2.4-1.6-2.2l-12.1 2.3c-1.1.2-2-.8-1.7-1.9l7.9-27.3c.3-1.1-.7-2.1-1.8-1.8z"/>
</svg>
